<?xml version="1.0" encoding="utf-8"?>
<!-- Generator: Adobe Illustrator 16.0.0, SVG Export Plug-In . SVG Version: 6.00 Build 0)  -->
<!DOCTYPE svg PUBLIC "-//W3C//DTD SVG 1.1//EN" "http://www.w3.org/Graphics/SVG/1.1/DTD/svg11.dtd">
<svg version="1.1" xmlns="http://www.w3.org/2000/svg" xmlns:xlink="http://www.w3.org/1999/xlink" x="0px" y="0px" width="100px"
	 height="67.516px" viewBox="0 0 100 67.516" style="enable-background:new 0 0 100 67.516;" xml:space="preserve">
	
	<g id="square">
		<path class="square-icon" d="M81.109,52.867c0,6.627-5.373,12-12,12H30.891
			c-6.628,0-12-5.373-12-12V14.648c0-6.628,5.372-12,12-12h38.219c6.627,0,12,5.372,12,12V52.867z"/>
	</g>
	
	<g id="triangle">
		<polygon style="display:none;fill:none;stroke:#000000;stroke-width:5;stroke-miterlimit:10;" points="66.453,27.787 50,46.397 
			33.659,27.838 	"/>
		<polygon style="fill:none;stroke:#000000;stroke-width:5;stroke-miterlimit:10;" points="66.453,27.787 50,46.397 33.659,27.838 	
			"/>
		<path style="fill:#FFFFFF;stroke:#000000;stroke-width:3;stroke-miterlimit:10;" d="M48.698,45.066
			c0.008-0.727,0.604-1.31,1.332-1.301l0,0c0.727,0.008,1.31,0.605,1.302,1.333l0,0c-0.01,0.727-0.605,1.31-1.333,1.301l0,0
			C49.272,46.39,48.689,45.794,48.698,45.066L48.698,45.066z"/>
		<path style="display:none;fill:#FFFFFF;stroke:#000000;stroke-width:3;stroke-miterlimit:10;" d="M32.342,27.838
			c0-0.727,0.59-1.317,1.316-1.317l0,0c0.728,0,1.317,0.59,1.317,1.317l0,0c0,0.728-0.59,1.317-1.317,1.317l0,0
			C32.932,29.155,32.342,28.565,32.342,27.838L32.342,27.838z"/>
		<path style="display:none;fill:#FFFFFF;stroke:#000000;stroke-width:3;stroke-miterlimit:10;" d="M65.137,27.787
			c0-0.727,0.59-1.317,1.316-1.317l0,0c0.728,0,1.317,0.59,1.317,1.317l0,0c0,0.728-0.59,1.317-1.317,1.317l0,0
			C65.727,29.104,65.137,28.514,65.137,27.787L65.137,27.787z"/>
	</g>

</svg>